<svg t="1586829966366" class="icon" viewBox="0 0 1024 1024" version="1.1" xmlns="http://www.w3.org/2000/svg" p-id="2545" width="200" height="200"><path d="M512.227677 688.065567C415.489473 688.065567 336.786682 609.490177 336.786682 512.908141 336.786682 416.307611 415.489473 337.71681 512.227677 337.71681 559.014545 337.71681 603.050998 355.956681 636.225516 389.074691 669.411335 422.204001 687.677919 466.183945 687.662508 512.908141 687.662508 609.490177 608.9628 688.065567 512.227677 688.065567M923.417445 434.818723 923.193467 434.777626 840.699479 416.481246 838.707302 410.106075C833.320515 392.855613 826.196352 375.667825 816.931035 357.561519L814.013149 351.858284 858.411255 277.88062C871.983535 256.195793 877.746361 226.369653 860.031503 208.622944L818.26977 166.835526C807.799284 156.344491 794.284539 154.141693 784.792161 154.141693 771.768526 154.141693 757.853085 158.410642 747.568563 165.559464L747.380545 165.688919 675.186489 211.731932 669.287016 208.668152C652.216354 199.807641 634.650473 192.435868 617.075345 186.756264L610.793671 184.7271 592.315436 101.338225 592.27434 101.112192C588.017719 77.485532 567.338741 51.986905 541.352087 51.986905L482.331672 51.986905C457.270728 51.986905 440.27404 77.150592 434.547174 102.091327L414.02231 184.344898 407.894749 186.297005C389.004517 192.320797 370.295113 200.192925 352.286412 209.696603L346.364335 212.822029 272.41133 165.690974 272.222284 165.559464C261.936734 158.410642 248.025403 154.141693 235.009987 154.141693 225.519664 154.141693 212.003891 156.345519 201.513885 166.84169L159.786056 208.591095C142.066061 226.325473 147.830941 256.156751 161.406304 277.854934L207.879808 355.353583 205.074939 361.006474C196.475394 378.339129 189.888573 394.407025 184.940496 410.129706L182.942155 416.484328 100.492346 434.777626 100.26734 434.818723C76.669449 439.079453 51.199589 459.759458 51.199589 485.739948L51.199589 544.796323C51.199589 569.869597 76.350947 586.879641 101.276271 592.614726L184.369248 613.407747 186.348068 619.467498C191.208815 634.346664 197.35487 649.230966 205.140694 664.970085L207.935289 670.61784 161.401168 748.176079C147.830941 769.841384 142.070171 799.646977 159.781946 817.394712L201.5519 859.157473C212.01622 869.641315 225.531993 871.841032 235.027453 871.841032 248.048006 871.841032 261.968585 867.583384 272.26338 860.452028L272.44318 860.32771 346.503038 813.081583 352.428197 816.205982C370.672177 825.82987 389.48638 833.738984 408.348871 839.718597L414.489788 841.66454 434.98794 923.723927C440.714805 948.663635 457.710465 973.827322 482.773465 973.827322L541.797989 973.827322C567.791835 973.827322 588.452319 948.347188 592.688392 924.742105L592.729488 924.510934 611.232381 840.940205 617.515084 838.910013C634.873425 833.297192 652.232793 826.013778 669.111327 817.264229L675.007717 814.206612 747.37438 860.328738 747.561371 860.456138C757.843838 867.593657 771.752087 871.853361 784.764421 871.853361 794.260908 871.853361 807.783873 869.650562 818.279016 859.149254L860.027394 817.402931C877.751498 799.645949 871.9897 769.841384 858.415364 748.178134L813.999792 674.094645 816.887884 668.406822C825.103172 652.226937 831.983835 635.746016 837.340828 619.421265L839.324785 613.37076 922.409543 592.614726C947.334867 586.880668 972.48417 569.870624 972.48417 544.796323L972.48417 485.739948C972.48417 459.759458 947.015338 439.079453 923.417445 434.818723" p-id="2546"></path></svg>